<?xml version="1.0" encoding="UTF-8" standalone="no"?>
<!-- Created with Inkscape (http://www.inkscape.org/) -->

<svg
   width="210mm"
   height="297mm"
   viewBox="0 0 210 297"
   version="1.1"
   id="svg5"
   inkscape:version="1.3.2 (091e20ef0f, 2023-11-25, custom)"
   sodipodi:docname="extra_title.svg"
   xml:space="preserve"
   xmlns:inkscape="http://www.inkscape.org/namespaces/inkscape"
   xmlns:sodipodi="http://sodipodi.sourceforge.net/DTD/sodipodi-0.dtd"
   xmlns="http://www.w3.org/2000/svg"
   xmlns:svg="http://www.w3.org/2000/svg"><sodipodi:namedview
     id="namedview7"
     pagecolor="#ffffff"
     bordercolor="#000000"
     borderopacity="1"
     inkscape:showpageshadow="0"
     inkscape:pageopacity="1"
     inkscape:pagecheckerboard="0"
     inkscape:deskcolor="#ffffff"
     inkscape:document-units="mm"
     showgrid="false"
     inkscape:zoom="0.55211835"
     inkscape:cx="216.4391"
     inkscape:cy="652.03412"
     inkscape:window-width="1920"
     inkscape:window-height="1017"
     inkscape:window-x="0"
     inkscape:window-y="1015"
     inkscape:window-maximized="1"
     inkscape:current-layer="layer1"><inkscape:grid
       type="xygrid"
       id="grid132"
       originx="0"
       originy="0"
       spacingy="1"
       spacingx="1"
       units="mm"
       visible="false" /></sodipodi:namedview><defs
     id="defs2" /><g
     inkscape:label="Ebene 1"
     inkscape:groupmode="layer"
     id="layer1"><g
       id="g1"
       transform="translate(0,60.564174)"><path
         style="fill:#000000;stroke-width:1"
         d="m 59.725871,36.621308 c -0.366558,-0.69798 -0.0072,-3.22758 0.734141,-5.168 0.146893,-0.3845 0.314561,-0.83388 0.372593,-0.99866 0.05803,-0.16477 0.138743,-0.34453 0.179357,-0.39946 0.04061,-0.0549 0.106294,-0.25147 0.145951,-0.43675 0.03965,-0.18529 0.152262,-0.4774 0.250227,-0.64913 0.09797,-0.17173 0.231013,-0.47934 0.295659,-0.68358 0.187513,-0.59243 1.512494,-3.14412 1.855459,-3.57331 0.269996,-0.33788 0.84079,-1.57896 0.925634,-2.01261 0.08859,-0.4528 0.08409,-0.46608 -0.175379,-0.51797 -0.81567,-0.16314 -0.773614,-1.72414 0.09729,-3.61111 0.228151,-0.49434 0.494806,-0.98867 0.592569,-1.09852 0.09776,-0.10987 0.206893,-0.323 0.242514,-0.47366 0.03563,-0.15066 0.245206,-0.5531 0.465742,-0.89432 0.220536,-0.34121 0.42818,-0.73474 0.461433,-0.87452 0.03325,-0.13976 0.100027,-0.30466 0.14839,-0.36642 0.04836,-0.0617 0.243174,-0.50776 0.432921,-0.9911 0.334795,-0.85278 0.464295,-1.03897 0.724887,-1.04217 0.166489,-0.003 0.152565,0.38697 -0.02496,0.69753 -0.07849,0.13731 -0.144312,0.32831 -0.146259,0.42443 -0.0081,0.40387 1.047518,0.0491 1.157469,-0.38899 0.07048,-0.28078 0.491011,-0.67465 0.629169,-0.58926 0.169706,0.10493 0.12632,0.31586 -0.127706,0.62105 -0.129227,0.15527 -0.312767,0.46205 -0.407855,0.68176 -0.09508,0.21969 -0.21348,0.47659 -0.263095,0.57084 -0.04961,0.0943 -0.134263,0.34144 -0.188108,0.54927 -0.110493,0.42648 -0.529183,1.74777 -0.768452,2.42509 -0.08732,0.24716 -0.215492,0.67408 -0.284839,0.94872 -0.06935,0.27463 -0.226371,0.74648 -0.348942,1.04858 -0.380342,0.9374 -0.93086,2.89766 -0.839448,2.98908 0.06216,0.0621 1.019234,-0.27846 1.419017,-0.50502 0.420528,-0.23832 0.455696,-0.23592 0.76688,0.0524 0.211427,0.19595 0.330756,0.22998 0.654267,0.18658 0.259165,-0.0348 0.395679,-0.014 0.395679,0.06 0,0.25868 0.18684,0.0817 0.381596,-0.36135 0.250311,-0.56949 1.192224,-2.18987 1.526371,-2.62583 0.13152,-0.17158 0.313903,-0.40932 0.405295,-0.52829 0.09139,-0.11894 0.196532,-0.18608 0.233644,-0.14912 0.03711,0.0369 -0.12744,0.35153 -0.365666,0.69905 -0.531025,0.77464 -0.645243,0.96203 -0.7808,1.28098 -0.08865,0.2086 -0.693153,1.46817 -1.261968,2.62954 -0.07616,0.15551 -0.138859,0.40267 -0.139332,0.54926 -0.001,0.32009 -0.749697,1.91432 -0.898982,1.91432 -0.210532,0 -0.209587,-0.29587 0.0024,-0.76668 0.250187,-0.55554 0.463149,-1.23784 0.532484,-1.70604 0.03655,-0.24678 0.0035,-0.34955 -0.136399,-0.42443 -0.26923,-0.14409 -0.273021,-0.14168 -0.591952,0.37555 -0.16087,0.2609 -0.448017,0.55764 -0.638103,0.65941 -0.303861,0.16269 -0.380002,0.16865 -0.630335,0.0492 -0.216016,-0.10307 -0.292505,-0.21703 -0.316965,-0.47237 -0.01773,-0.18512 0.01597,-0.38479 0.07489,-0.44371 0.295842,-0.29584 -0.0089,-0.35117 -0.539893,-0.098 -0.279951,0.13351 -0.375592,0.25389 -0.45619,0.57423 -0.05608,0.22292 -0.147382,0.51293 -0.202878,0.64446 -0.05549,0.1316 -0.16593,0.55846 -0.245406,0.94872 -0.158607,0.77882 -0.331656,1.39832 -0.641885,2.29794 -0.111854,0.32434 -0.203367,0.65445 -0.203367,0.73356 0,0.0791 -0.081,0.26313 -0.180004,0.40892 -0.099,0.1458 -0.26089,0.53472 -0.359751,0.86428 -0.09887,0.32955 -0.239812,0.734 -0.313224,0.89877 -0.158821,0.3565 -0.783692,1.97239 -1.061999,2.7463 -0.799367,2.22286 -2.192628,4.02732 -2.56383,3.3205 z m 1.287651,-1.2443 c 0.697617,-1.26748 2.092615,-4.68248 2.296307,-5.62141 0.09811,-0.45224 0.593105,-2.318 0.834588,-3.14575 0.08813,-0.30209 0.209304,-0.79643 0.269275,-1.09852 0.05997,-0.30208 0.1444,-0.59419 0.18762,-0.64912 0.08583,-0.10907 0.402289,-1.16207 0.402289,-1.33857 0,-0.26151 -0.313068,-0.0751 -0.504687,0.3005 -0.11504,0.22548 -0.396816,0.711 -0.626185,1.07894 -0.62981,1.01028 -0.634238,1.01794 -0.92719,1.6069 -0.150263,0.3021 -0.368407,0.70655 -0.484767,0.89879 -0.11636,0.19224 -0.296813,0.55175 -0.401011,0.79892 -0.1042,0.24716 -0.241924,0.5168 -0.30606,0.59919 -0.243274,0.31251 -1.574182,4.45544 -1.796555,5.59243 -0.171921,0.87904 -0.188611,1.63218 -0.04223,1.9057 0.10152,0.1897 0.112907,0.18831 0.428575,-0.0524 0.178356,-0.13604 0.47987,-0.53002 0.67003,-0.87552 z m 6.441537,-11.82763 c 0.384341,-0.4147 0.283508,-1.05834 -0.104946,-0.66989 -0.212399,0.21241 -0.372202,0.63033 -0.306492,0.80156 0.072,0.18765 0.133854,0.16785 0.411438,-0.1316 z m -1.11016,-4.37313 c 0.483499,-1.43155 0.98618,-2.83186 1.117071,-3.11178 0.130893,-0.27993 0.237983,-0.55708 0.237983,-0.61588 0,-0.0588 0.09051,-0.31806 0.201132,-0.57613 l 0.201131,-0.46923 -0.475761,0.0695 c -0.533705,0.078 -0.958835,0.41653 -1.294075,1.03049 -0.111453,0.20412 -0.38861,0.67364 -0.615911,1.0434 -0.227301,0.36975 -0.413274,0.71667 -0.413274,0.77091 0,0.0543 -0.08519,0.25031 -0.189308,0.43568 -0.289441,0.51533 -0.789842,1.68736 -0.862107,2.01923 -0.312303,1.43415 -0.299022,1.90585 0.05053,1.79491 0.133227,-0.0423 0.238181,0.012 0.347629,0.1787 0.140668,0.2147 0.190652,0.22868 0.486325,0.13614 0.327421,-0.10254 0.335193,-0.11987 1.208628,-2.70598 z m 69.621991,17.03563 c -0.053,-0.0857 0.83608,-0.71405 1.01026,-0.71405 0.20638,0 1.15141,-0.80331 1.3114,-1.11472 0.0942,-0.18334 0.25987,-0.4359 0.36819,-0.56126 0.39789,-0.46045 0.66504,-2.20018 0.47997,-3.12558 -0.0825,-0.41272 -1.15532,-1.52482 -1.90071,-1.97038 -0.5102,-0.30497 -1.60807,-0.71653 -1.91903,-0.71939 -0.0871,-5.7e-4 -0.33803,-0.0604 -0.55773,-0.13253 -0.2197,-0.0721 -0.55616,-0.12333 -0.74769,-0.11387 -0.33739,0.0168 -0.35688,0.0403 -0.62648,0.75674 -0.36413,0.96765 -1.04066,2.33631 -1.23428,2.49699 -0.12461,0.10346 -0.16898,0.1012 -0.23872,-0.012 -0.0471,-0.0763 -0.0721,-0.16323 -0.0556,-0.19331 0.12284,-0.22325 0.34734,-0.7986 0.3939,-1.00948 0.031,-0.14064 0.20311,-0.45521 0.38235,-0.69905 0.46146,-0.62778 0.71024,-1.20047 0.57863,-1.33207 -0.0734,-0.0735 -0.15559,-0.0737 -0.27076,-0.001 -0.18305,0.11546 -0.18611,0.12053 -0.63038,1.03965 -0.41474,0.85806 -0.51836,0.96304 -0.7358,0.7456 -0.1994,-0.19938 -0.13685,-0.48561 0.18475,-0.84545 0.27961,-0.31287 0.55336,-0.71908 0.55336,-0.82115 0,-0.14111 -0.30473,-0.0805 -0.36335,0.0721 -0.0316,0.0824 -0.13952,0.14979 -0.2398,0.14979 -0.10145,0 -0.21383,0.0997 -0.25335,0.22471 -0.10936,0.34593 -0.65433,1.47941 -0.91224,1.89743 -0.21939,0.35556 -0.54267,0.49352 -0.67078,0.28624 -0.11014,-0.17823 0.23349,-1.02239 0.66434,-1.63198 0.24358,-0.34463 0.47356,-0.71035 0.51105,-0.81271 0.0613,-0.16741 0.0308,-0.17908 -0.30408,-0.11626 -0.57084,0.10706 -0.90536,0.32074 -1.06006,0.67705 -0.0774,0.17841 -0.21762,0.50751 -0.31148,0.73135 -0.0939,0.22383 -0.27441,0.53708 -0.40121,0.69612 -0.19444,0.24384 -0.25475,0.26907 -0.38494,0.16103 -0.13861,-0.11507 -0.13896,-0.18102 -0.003,-0.64619 0.083,-0.28493 0.2148,-0.64895 0.2928,-0.80891 0.078,-0.15996 0.12645,-0.30619 0.10768,-0.32496 -0.0188,-0.0188 -0.20995,0.0259 -0.42486,0.0992 -0.3079,0.10507 -0.48064,0.2692 -0.81472,0.77435 -0.23319,0.3526 -0.4258,0.68601 -0.42802,0.74095 -0.009,0.2208 -0.47947,0.6769 -0.63626,0.61673 -0.22357,-0.0857 -0.21139,-0.12653 0.2893,-0.96627 0.47839,-0.80236 0.44502,-0.95641 -0.14147,-0.65313 -0.16789,0.0868 -0.33012,0.15229 -0.36051,0.14549 -0.0304,-0.007 -0.17692,0.0381 -0.32561,0.1 -0.27423,0.11387 -0.53815,0.47234 -0.81602,1.10823 -0.21652,0.49549 -0.29501,0.59772 -0.45887,0.59772 -0.18848,0 -0.18522,-0.37604 0.007,-0.83665 0.14331,-0.343 0.14115,-0.36172 -0.0416,-0.36172 -0.26207,0 -1.03002,0.33754 -1.716,0.75426 -0.58949,0.3581 -0.83214,0.41898 -0.9446,0.23699 -0.13523,-0.2188 0.44429,-0.62776 1.91751,-1.35316 l 1.51349,-0.74523 0.33024,-0.66979 c 0.18163,-0.36837 0.45225,-0.8644 0.60137,-1.10228 0.14912,-0.23788 0.36513,-0.74198 0.48002,-1.12022 0.11488,-0.37826 0.23394,-0.75303 0.26457,-0.83283 0.0372,-0.0971 -0.0212,-0.15599 -0.17666,-0.178 -0.28415,-0.0403 -0.26539,-0.32428 0.0434,-0.65708 0.22779,-0.24551 0.51884,-0.29345 0.6355,-0.10467 0.0898,0.14535 0.0561,0.87996 -0.0471,1.02459 -0.11788,0.16529 -0.44278,1.15759 -0.39475,1.20561 0.0239,0.024 0.28767,-0.1787 0.586,-0.4504 0.70316,-0.64034 0.95332,-0.77541 1.17308,-0.63338 0.1331,0.086 0.16146,0.23034 0.13572,0.69068 l -0.0326,0.58192 0.27086,-0.27086 c 0.46088,-0.46089 0.80097,-0.32661 0.7588,0.29958 -0.0121,0.18058 0.015,0.32834 0.0603,0.32834 0.0453,0 0.2467,-0.17336 0.44749,-0.38525 0.77295,-0.81569 1.31801,-0.77023 1.25731,0.10493 -0.0183,0.26412 -0.0198,0.4802 -0.003,0.48016 0.0165,-2e-5 0.17106,-0.0731 0.34357,-0.16224 0.29856,-0.1544 0.32161,-0.15234 0.47948,0.0427 l 0.16585,0.20481 0.20629,-0.20629 c 0.26359,-0.26359 0.5086,-0.17324 0.58651,0.21629 0.0505,0.2528 0.11664,0.30804 0.4224,0.35315 1.91805,0.28288 3.39764,0.94208 4.31458,1.92231 0.33299,0.35596 0.67599,0.81079 0.76223,1.01072 0.0862,0.19993 0.20135,0.46139 0.25583,0.58101 0.0545,0.1196 0.0679,0.34431 0.0298,0.49932 -0.038,0.15502 -0.10704,0.54526 -0.15325,0.86722 -0.0762,0.53065 -0.77683,2.119 -1.13042,2.56261 -0.16367,0.20532 -1.03805,0.80925 -1.46937,1.01488 -0.19224,0.0916 -0.44792,0.21497 -0.56816,0.27408 -0.12026,0.0591 -0.24239,0.0691 -0.27142,0.022 z m -8.7835,-7.96143 c 0.90181,-0.28107 0.79244,-0.16432 1.37809,-1.47093 0.20591,-0.4594 0.31569,-1.06846 0.19258,-1.06846 -0.15739,0 -1.43521,1.20918 -1.58602,1.50082 -0.08,0.15472 -0.32587,0.48973 -0.54636,0.74449 -0.57327,0.66236 -0.5907,0.65324 0.56171,0.29408 z m 2.16469,-0.63493 c 0.16884,-0.0643 0.2886,-0.2398 0.40386,-0.59219 0.30493,-0.93227 0.16282,-0.95796 -0.4916,-0.0889 -0.25852,0.34328 -0.52013,0.68778 -0.58137,0.76554 -0.0922,0.1172 -0.065,0.12987 0.15887,0.0741 0.14862,-0.0371 0.37823,-0.1084 0.51024,-0.15855 z m 1.79392,-0.19835 c 0.23594,-0.0897 0.43272,-0.44095 0.49169,-0.87768 0.0164,-0.12107 -0.004,-0.2222 -0.0452,-0.22469 -0.0412,-0.003 -0.12084,-0.004 -0.17699,-0.004 -0.13116,0 -0.97919,0.77985 -1.1063,1.01736 -0.0849,0.15861 -0.054,0.18101 0.24966,0.18101 0.1906,0 0.4548,-0.0412 0.58711,-0.0915 z m -64.890088,5.98548 c -1.33894,-0.14433 -2.680066,-0.63468 -2.804015,-1.02521 -0.09292,-0.29275 -0.01849,-0.29033 0.441661,0.0143 0.257164,0.17024 0.804194,0.3715 1.384681,0.50944 0.819869,0.19481 1.120827,0.21918 2.067138,0.16745 1.66289,-0.0909 2.888843,-0.48048 4.081448,-1.29697 1.391347,-0.95256 1.328146,-0.90239 2.191554,-1.73951 1.198031,-1.16154 2.080787,-2.62948 2.46339,-4.09639 0.06088,-0.23344 0.162907,-0.6044 0.226713,-0.82437 0.0638,-0.21999 0.08741,-0.42856 0.05247,-0.46351 -0.03495,-0.0349 -0.26324,0.10013 -0.507313,0.30009 -0.244072,0.2 -0.492379,0.36363 -0.551793,0.36363 -0.05941,0 -0.10984,0.0337 -0.112053,0.0749 -0.0021,0.0412 -0.249988,0.23219 -0.550597,0.42443 -0.451663,0.28884 -0.563967,0.41888 -0.646789,0.74899 -0.267154,1.06477 -1.243463,2.47545 -1.797427,2.59712 -0.340416,0.0748 -0.59629,-0.0739 -0.59629,-0.34644 0,-0.41086 0.646766,-1.43515 1.358536,-2.15155 0.777183,-0.78224 0.817364,-0.89441 0.525084,-1.46572 -0.193234,-0.37769 -0.089,-1.01819 0.255835,-1.57209 0.303826,-0.48803 0.367066,-0.80626 0.160221,-0.80626 -0.07589,0 -0.608058,0.3851 -0.701836,0.50788 -0.176883,0.23158 -1.23899,0.86838 -1.36665,0.81939 -0.152632,-0.0585 -0.143441,-0.43795 0.02067,-0.85291 0.03852,-0.0975 0.02401,-0.17477 -0.0328,-0.17477 -0.144156,0 -0.718379,0.8042 -0.718379,1.00609 0,0.0923 -0.07227,0.22782 -0.160604,0.30112 -0.135944,0.1128 -0.180256,0.1064 -0.288602,-0.0417 -0.125827,-0.17209 -0.06539,-0.52495 0.206522,-1.20551 0.06596,-0.16509 0.04207,-0.18124 -0.184167,-0.12453 -0.342906,0.0861 -0.433852,-0.0807 -0.151788,-0.27817 0.264261,-0.1851 0.690461,-0.2046 0.855901,-0.0392 0.09007,0.0901 0.16272,0.0765 0.311333,-0.058 0.106613,-0.0965 0.298673,-0.16059 0.426785,-0.14244 0.192688,0.0273 0.241559,0.10666 0.282864,0.45906 l 0.04993,0.42607 0.499325,-0.34736 c 1.112619,-0.774 1.406503,-0.95047 1.585939,-0.95228 0.158505,-0.001 0.179121,0.0517 0.132053,0.34184 -0.05272,0.32485 -0.03889,0.34544 0.251491,0.37449 0.420593,0.0421 0.576267,0.30504 0.337079,0.56935 -0.126227,0.13947 -0.334756,0.20983 -0.683315,0.23053 l -0.501646,0.0297 -0.151721,0.47686 c -0.1298,0.40798 -0.132773,0.55584 -0.02056,1.02362 0.07213,0.3007 0.180539,0.54674 0.240887,0.54674 0.06035,0 0.640739,-0.41193 1.289756,-0.91541 0.945572,-0.73353 1.212106,-0.99644 1.341447,-1.32321 0.22628,-0.57168 0.967906,-1.98039 1.392551,-2.64515 0.477793,-0.74795 0.733309,-1.00447 1.002631,-1.00653 0.710833,-0.005 -0.351232,2.14186 -1.897434,3.83629 -0.194609,0.21327 -0.274628,0.40731 -0.274628,0.66596 0,0.20076 -0.06775,0.52715 -0.150549,0.72533 -0.0828,0.19818 -0.200375,0.59687 -0.261272,0.88602 -0.06089,0.28913 -0.262786,0.79964 -0.44864,1.13448 -0.185854,0.33482 -0.337918,0.6589 -0.337918,0.72016 0,0.14561 -1.025699,1.65408 -1.473019,2.16632 -0.962124,1.10177 -1.022359,1.15215 -2.359675,1.97311 -1.289527,0.79164 -2.407243,1.24484 -3.381475,1.37112 -1.274719,0.16521 -1.609015,0.18005 -2.322929,0.10306 z m 6.044097,-4.72379 c 0.434192,-0.34734 1.391835,-1.8067 1.267301,-1.93124 -0.09965,-0.0996 -0.378658,0.1084 -0.773702,0.57687 -0.728786,0.86429 -1.077691,1.82166 -0.493599,1.35437 z m 6.176668,-7.16937 c 0.20988,-0.361 0.412638,-0.78792 0.450578,-0.94871 l 0.06897,-0.29234 -0.262766,0.32722 c -0.344565,0.42911 -1.147741,1.90227 -1.139299,2.08967 0.0064,0.14281 0.492007,-0.50416 0.882507,-1.17584 z m 30.039113,10.22102 c -0.0918,-0.1485 0.1066,-0.84187 0.32562,-1.13811 0.11364,-0.15369 0.20661,-0.29873 0.20661,-0.32231 0,-0.0831 0.76093,-0.9051 1.80704,-1.95213 0.93716,-0.93799 1.09269,-1.14456 1.36123,-1.80798 0.16675,-0.41194 0.33365,-0.92069 0.37088,-1.13057 0.0372,-0.20987 0.0923,-0.4458 0.12246,-0.52429 0.11512,-0.29999 -0.14871,-0.11374 -1.00065,0.70614 -1.19591,1.15103 -1.60877,1.13346 -0.96145,-0.0409 0.35052,-0.63591 0.34485,-0.60777 0.12303,-0.60972 -0.0961,-5.9e-4 -0.24144,-0.0437 -0.32293,-0.0952 -0.11759,-0.0744 -0.0764,-0.12373 0.19973,-0.23897 0.19134,-0.0799 0.51641,-0.1769 0.72238,-0.21551 0.34443,-0.0645 0.3745,-0.0517 0.3745,0.15917 0,0.12614 -0.0975,0.33322 -0.21677,0.46012 -0.11922,0.12694 -0.18807,0.25943 -0.15301,0.2945 0.035,0.0351 0.39442,-0.25686 0.79856,-0.64874 0.40413,-0.39186 0.78587,-0.71248 0.8483,-0.71248 0.1618,0 0.0375,1.2099 -0.19401,1.88811 -0.10136,0.29695 -0.18429,0.55865 -0.18429,0.58155 0,0.0697 1.1285,-0.59112 1.44804,-0.84796 0.29382,-0.23618 0.63486,-0.751 1.05856,-1.598 0.11712,-0.23414 0.25335,-0.45067 0.30273,-0.48119 0.0494,-0.0305 0.1538,-0.20869 0.23203,-0.39595 0.0782,-0.18725 0.19082,-0.39764 0.25018,-0.46752 0.0594,-0.0699 0.29019,-0.41474 0.51294,-0.76633 0.44564,-0.70339 0.74591,-1.00013 1.01714,-1.0052 0.43646,-0.008 0.2516,0.78368 -0.41851,1.79253 -0.22468,0.33827 -0.40851,0.632 -0.40851,0.65275 0,0.0208 -0.11807,0.16364 -0.26238,0.31751 -0.14431,0.15388 -0.44274,0.52694 -0.66316,0.82902 -0.22043,0.3021 -0.48851,0.62 -0.59572,0.70647 -0.23725,0.19132 -0.20479,0.62475 0.0504,0.6734 0.10544,0.0201 0.35208,-0.14091 0.61039,-0.39844 0.49842,-0.49695 0.66072,-0.7694 0.66072,-1.10917 0,-0.27086 0.27986,-0.57131 0.53216,-0.57131 0.19741,0 0.22964,0.39664 0.0471,0.57921 -0.2009,0.2009 0.0688,0.13876 0.34681,-0.0799 0.13966,-0.10987 0.29177,-0.19995 0.33803,-0.20022 0.18626,-0.001 0.83628,-0.70724 1.12993,-1.22754 0.17174,-0.30432 0.37745,-0.6074 0.45711,-0.67352 0.0797,-0.0661 0.14485,-0.16695 0.14485,-0.22407 0,-0.14896 0.57966,-1.05056 0.97691,-1.51945 0.69092,-0.81556 0.745,-0.85992 1.01085,-0.82903 0.35886,0.0417 0.308,0.35401 -0.19255,1.18245 -0.34182,0.56572 -0.73668,0.99268 -1.76785,1.91152 -0.12226,0.10894 -0.43262,0.63256 -0.6897,1.1636 -0.25707,0.53103 -0.50531,1.04354 -0.55165,1.13891 -0.122,0.25109 -0.10379,0.37585 0.0549,0.37585 0.0765,0 0.16635,0.0709 0.19964,0.15775 0.0463,0.12067 0.13601,0.14117 0.3812,0.0873 0.73765,-0.16202 1.159,-0.42832 1.58055,-0.99896 0.57233,-0.77473 0.75236,-0.94022 1.09802,-1.00936 0.58148,-0.11626 0.33596,0.43619 -0.59908,1.34806 -0.39495,0.38518 -0.42505,0.44466 -0.26915,0.5319 0.12804,0.0717 0.28033,0.0436 0.56293,-0.10373 0.78322,-0.40824 0.81261,-0.42803 1.72635,-1.16169 0.65815,-0.52846 0.97259,-0.54427 0.97259,-0.0489 0,0.15784 -0.0449,0.31475 -0.0999,0.3487 -0.11979,0.074 -0.13304,0.24965 -0.0189,0.24965 0.0446,0 0.16815,-0.0803 0.27462,-0.17825 0.52683,-0.4851 1.04245,-0.67852 1.04245,-0.39106 0,0.0713 0.15984,0.18754 0.35521,0.25818 0.24004,0.0868 0.34495,0.18169 0.32358,0.29265 -0.0249,0.1292 -0.12724,0.15749 -0.48004,0.13267 -0.24663,-0.0173 -0.51755,-0.0935 -0.60205,-0.16911 -0.16626,-0.14884 -0.0932,-0.19436 -1.21307,0.75623 -0.25736,0.21845 -0.53823,0.3972 -0.62416,0.3972 -0.23756,0 -0.19237,-0.44055 0.0786,-0.7663 0.57014,-0.68538 0.53568,-0.9591 -0.0566,-0.44933 -1.2168,1.04729 -2.32131,1.47616 -2.76581,1.07389 -0.15451,-0.13982 -0.22218,-0.13569 -0.71257,0.0436 -0.29801,0.10894 -0.75267,0.19807 -1.01035,0.19807 -0.38721,0 -0.50445,-0.0457 -0.6755,-0.26313 -0.24666,-0.31359 -0.26342,-0.61051 -0.0515,-0.91303 0.14008,-0.2 0.14016,-0.22196 5.7e-4,-0.22196 -0.085,0 -0.21074,0.0899 -0.27934,0.19973 -0.0862,0.13798 -0.2331,0.19982 -0.47521,0.20002 -0.2789,2.4e-4 -0.39126,0.0617 -0.5502,0.3014 -0.25263,0.38086 -0.8527,0.86914 -1.16145,0.94509 -0.14117,0.0347 -0.388,-0.0195 -0.61173,-0.13441 -0.20629,-0.106 -0.40046,-0.15156 -0.43149,-0.10134 -0.0311,0.0501 -0.26671,0.19875 -0.52371,0.3301 -0.63924,0.32666 -1.57867,1.22348 -1.76868,1.68845 -0.34783,0.85117 -1.94457,3.02408 -2.57439,3.50331 -0.35897,0.27313 -0.81836,0.41875 -0.90072,0.28548 z m 1.19226,-1.14283 c 0.38104,-0.40836 1.06257,-1.34293 1.22579,-1.68093 0.0663,-0.13733 -0.33086,0.21742 -0.88262,0.7883 -0.55176,0.57088 -1.0032,1.12298 -1.0032,1.22686 0,0.24408 0.22826,0.12853 0.66003,-0.33423 z m 7.22917,-8.3454 c 0.44813,-0.78163 0.36247,-0.7459 -0.1996,0.0832 -0.27463,0.40513 -0.49832,0.7821 -0.4971,0.83772 0.003,0.14401 0.34576,-0.30888 0.6967,-0.92099 z m 3.92519,-1.34414 c 0.4445,-0.6315 0.25109,-0.68184 -0.21188,-0.0551 -0.2297,0.31093 -0.41764,0.5901 -0.41764,0.62038 0,0.13366 0.37386,-0.20204 0.62952,-0.56525 z m -41.374398,9.76451 c 0,-0.0744 0.06389,-0.25838 0.141972,-0.40889 0.128746,-0.24816 0.123306,-0.29341 -0.0584,-0.48577 -0.593681,-0.62847 -0.622839,-1.57222 -0.08677,-2.80861 0.312451,-0.72065 0.675155,-1.44909 0.874794,-1.75692 0.265547,-0.40944 0.221017,-0.659 -0.142228,-0.7971 -0.281311,-0.10694 -0.218459,-0.29115 0.100427,-0.29428 0.120346,-10e-4 0.45362,-0.1248 0.740621,-0.27464 0.507296,-0.26488 0.597107,-0.36356 1.924871,-2.11482 0.137314,-0.1811 0.63051,-0.73024 1.095992,-1.22026 0.68597,-0.72216 0.894112,-0.8854 1.098513,-0.86155 0.591296,0.0691 0.201487,1.11063 -0.781935,2.0894 -0.200194,0.19925 -0.455727,0.46889 -0.567852,0.5992 -0.293104,0.34063 -0.827239,0.80007 -1.541082,1.32556 -0.632183,0.46539 -1.001339,0.8522 -1.001339,1.04923 0,0.25661 0.75567,0.0948 1.665215,-0.3567 0.653258,-0.32422 0.970193,-0.43402 1.042921,-0.3613 0.07273,0.0728 0.0652,0.16737 -0.02477,0.31145 -0.196745,0.31504 -0.03695,0.36507 0.330449,0.10347 0.429041,-0.30551 0.647554,-0.52804 0.936295,-0.95352 l 0.236378,-0.34832 -0.258981,-0.22278 c -0.245399,-0.21108 -0.25246,-0.24338 -0.134632,-0.61598 0.421323,-1.33235 1.52285,-2.67966 1.814711,-2.21964 0.162832,0.25665 0.08188,0.97817 -0.173773,1.54893 -0.383728,0.85667 -0.443376,1.02645 -0.360598,1.02645 0.04127,0 0.444512,-0.42596 0.896106,-0.94657 0.899218,-1.03667 1.506794,-1.45775 1.724635,-1.19527 0.182438,0.21983 -0.127253,0.8383 -0.722621,1.44314 -0.503959,0.51197 -1.288229,1.09817 -1.469228,1.09817 -0.05735,0 -0.182505,0.14605 -0.278122,0.32456 -0.60532,1.13008 -0.604426,1.38521 0.0041,1.16517 0.446106,-0.1613 0.595162,-0.0403 0.272497,0.22134 -0.178165,0.14444 -0.36134,0.1881 -0.69716,0.16617 -0.395147,-0.0257 -0.468245,-0.0661 -0.551704,-0.30475 -0.07879,-0.22521 -0.04637,-0.36728 0.178963,-0.7845 0.307183,-0.56878 0.257019,-0.80198 -0.0732,-0.34028 -0.117187,0.16384 -0.464955,0.55333 -0.772807,0.86552 -0.476804,0.48352 -0.630862,0.57828 -1.03985,0.63962 -0.400035,0.06 -0.502037,0.042 -0.611525,-0.10773 -0.12308,-0.16832 -0.155295,-0.1696 -0.508057,-0.0203 -0.659205,0.27915 -1.09998,0.38348 -1.488713,0.3524 -0.358654,-0.0287 -0.389671,-0.007 -0.602241,0.41916 -0.614743,1.2327 -1.059795,3.89474 -0.651139,3.89474 0.0426,0 0.242225,-0.21345 0.443623,-0.47435 0.748735,-0.96993 1.682406,-1.76759 2.442905,-2.08701 0.780411,-0.32782 1.151046,-0.0133 0.88206,0.74952 -0.22266,0.63109 -0.543344,1.03993 -1.169559,1.49111 -0.584551,0.42114 -1.839738,0.91992 -2.315019,0.91992 -0.179935,0 -0.285103,0.0824 -0.380555,0.298 -0.141144,0.31886 -0.38416,0.48305 -0.38416,0.25954 z m 2.17861,-1.30798 c 0.795819,-0.42366 1.815986,-1.57066 1.815986,-2.04179 0,-0.6073 -2.474572,1.19753 -2.992615,2.18265 -0.125333,0.23836 -0.1242,0.23902 0.294656,0.17204 0.231264,-0.0371 0.628153,-0.17778 0.881973,-0.3129 z m 1.756083,-7.13887 c 0.07673,0 0.359497,-0.25527 0.359497,-0.32454 0,-0.0216 0.201134,-0.2491 0.446965,-0.50566 0.385972,-0.40283 0.939629,-1.26696 0.811751,-1.26696 -0.172325,0 -1.877626,1.91504 -1.99588,2.24136 -0.06661,0.18382 -0.06043,0.18514 0.116574,0.0249 0.102813,-0.0931 0.220301,-0.16917 0.261093,-0.16917 z m 2.846685,-0.33348 c 0.264275,-0.5505 0.468011,-1.3384 0.371132,-1.43528 -0.09684,-0.0968 -0.625099,0.51185 -0.817235,0.94166 -0.146317,0.32732 -0.191939,0.84539 -0.08396,0.95336 0.125053,0.12507 0.337968,-0.0596 0.530059,-0.45974 z m 1.853479,-0.27062 c 0.572419,-0.60012 0.693839,-0.89821 0.211236,-0.5186 -0.242349,0.19064 -0.956767,0.99872 -0.956767,1.08222 0,0.14636 0.245003,-0.0389 0.745531,-0.56362 z m 18.998831,4.78383 c -0.41414,-0.2122 -0.61819,-0.45077 -0.75625,-0.8842 -0.30772,-0.96605 -0.0105,-2.11145 0.84191,-3.2456 0.99847,-1.32831 1.95419,-2.14553 2.51277,-2.14863 0.35455,-10e-4 0.43543,-0.0628 0.72751,-0.54772 0.53407,-0.88657 1.68979,-1.92076 2.76791,-2.47683 0.59996,-0.30944 1.41149,-0.36846 1.65928,-0.12066 0.22915,0.22916 0.2901,0.69081 0.15404,1.16688 -0.2712,0.94897 -1.55451,2.37935 -2.1347,2.37935 -0.25412,0 -0.16999,-0.15951 0.23053,-0.43707 0.51972,-0.36016 1.42307,-1.4719 1.58482,-1.9504 0.37235,-1.10154 -0.62977,-1.24636 -1.9024,-0.27494 -0.25771,0.19671 -0.63595,0.51632 -0.84055,0.71024 -0.2046,0.19394 -0.40428,0.35299 -0.44374,0.35346 -0.0901,10e-4 -0.87697,1.05936 -0.87697,1.17951 0,0.0488 0.089,0.1692 0.19778,0.26764 0.45679,0.41338 0.3308,1.43058 -0.20466,1.65238 -0.44017,0.18232 -0.66644,-0.0628 -0.75143,-0.81401 -0.0365,-0.32281 -0.10699,-0.58695 -0.15658,-0.58695 -0.2836,0 -0.88335,0.36883 -1.26498,0.77792 -0.86975,0.93234 -1.21813,1.56322 -1.52813,2.76728 -0.19244,0.74751 0.0701,1.54791 0.50783,1.54791 0.0904,0 0.20733,0.0431 0.25995,0.0957 0.12741,0.12734 0.76075,0.1511 1.46722,0.0549 1.03154,-0.14048 0.61472,0.28013 -0.57866,0.5839 -0.71086,0.18096 -1.04378,0.16966 -1.4725,-0.05 z m 3.68416,-5.03369 c 0.0463,-0.18426 0.0123,-0.29394 -0.12293,-0.39628 -0.24905,-0.18862 -0.37189,-0.18398 -0.29699,0.0107 0.0336,0.0875 0.0882,0.26724 0.12137,0.39946 0.0786,0.31326 0.218,0.30656 0.29855,-0.0144 z m -8.12778,4.96366 c -0.0706,-0.0448 -0.15198,-0.21152 -0.18084,-0.37061 -0.0289,-0.15909 -0.0668,-0.30364 -0.0844,-0.32123 -0.0176,-0.0176 -0.27842,0.0889 -0.57965,0.23666 -0.38442,0.18853 -0.62614,0.24893 -0.81082,0.20257 -0.32872,-0.0825 -0.33163,-0.252 -0.0124,-0.72247 0.13792,-0.20322 0.23116,-0.3891 0.20721,-0.41305 -0.0239,-0.024 -0.21544,0.012 -0.42552,0.0796 -0.21009,0.0677 -0.43672,0.13731 -0.50365,0.15463 -0.0669,0.0173 -0.18471,0.17949 -0.26176,0.36038 -0.244882,0.57498 -0.57106,0.79467 -1.127325,0.7593 -0.419684,-0.0267 -0.490984,-0.0623 -0.518912,-0.25918 -0.06717,-0.4735 0.956929,-1.81898 1.384509,-1.81898 0.11648,0 0.247578,0.10426 0.313808,0.24966 0.13416,0.29446 0.33521,0.3119 1.07223,0.0931 0.84057,-0.24963 1.04117,-0.0193 0.54729,0.62812 -0.14286,0.18731 -0.24004,0.36027 -0.21595,0.38436 0.0555,0.0555 0.61973,-0.21957 1.0731,-0.52313 0.60722,-0.40659 0.9192,-0.26952 0.66083,0.29033 -0.0827,0.17912 -0.16366,0.47949 -0.17998,0.66751 -0.0311,0.35841 -0.1426,0.45892 -0.35779,0.32253 z m -3.033589,-1.02261 c 0.02984,-0.19349 -0.116427,-0.38489 -0.297488,-0.38921 -0.07113,-0.001 -0.385334,0.73954 -0.385334,0.90908 0,0.19633 0.648487,-0.29739 0.682822,-0.51987 z m -3.26704,0.49112 c -0.08127,-0.0949 -0.185088,-0.14951 -0.230708,-0.12133 -0.04561,0.0281 -0.172422,0.0228 -0.28178,-0.012 -0.207036,-0.0657 -0.281438,-0.48614 -0.105294,-0.595 0.127534,-0.0788 0.396152,-0.62936 0.336287,-0.68923 -0.02651,-0.0265 -0.196427,-0.0241 -0.377588,0.005 -0.18116,0.0293 -0.413078,0.007 -0.515372,-0.0515 -0.166376,-0.0939 -0.145938,-0.12174 0.193813,-0.26447 1.010363,-0.42428 1.385699,-0.21069 1.114509,0.63423 -0.06105,0.19022 0.02025,0.14493 0.409682,-0.2282 0.51781,-0.49615 0.874106,-0.64974 1.132377,-0.48815 0.363377,0.22737 0.197404,0.94077 -0.379696,1.63205 -0.239796,0.28723 -0.349542,0.34012 -0.715841,0.34502 -0.291829,0.004 -0.480712,-0.0504 -0.580386,-0.16682 z m 1.351795,-1.16115 c 0.08429,-0.33316 -0.01495,-0.36973 -0.352032,-0.12973 -0.302147,0.21515 -0.489182,0.704 -0.353403,0.92371 0.09033,0.14614 0.61776,-0.44748 0.705435,-0.794 z m -7.555689,0.57975 c 0,-0.0544 0.157286,-0.30507 0.349526,-0.55691 0.582046,-0.76252 0.39687,-0.87652 -0.39946,-0.24592 -0.599801,0.47496 -1.046552,0.73742 -1.123795,0.66018 -0.03116,-0.0312 -0.0013,-0.24108 0.06613,-0.46648 0.15048,-0.50227 0.08971,-0.5933 -0.155871,-0.23346 -0.27996,0.41023 -0.705014,0.84172 -0.829151,0.84172 -0.230051,0 -0.212472,-0.30217 0.03657,-0.62869 0.331719,-0.43491 0.325307,-0.50037 -0.04112,-0.41989 -0.371295,0.0816 -0.396561,-0.0816 -0.048,-0.31004 0.166548,-0.1092 0.365455,-0.14638 0.588426,-0.11014 0.217031,0.0352 0.413625,10e-4 0.552749,-0.0965 0.313344,-0.21947 0.704391,-0.0979 0.704391,0.21912 0,0.312 0.107814,0.31221 0.477775,0.001 0.571499,-0.48088 1.120063,-0.52517 1.120063,-0.0904 0,0.0756 0.04495,0.13757 0.09987,0.13757 0.05493,0 0.09987,-0.0401 0.09987,-0.0892 0,-0.25094 0.339849,-0.18093 0.667821,0.13759 l 0.356504,0.34623 -0.269001,0.10226 c -0.147952,0.0563 -0.375712,0.10227 -0.506135,0.10227 -0.201933,0 -0.241733,0.0556 -0.268128,0.37449 -0.02691,0.32512 -0.0672,0.37866 -0.305623,0.40608 -0.221188,0.0255 -0.274628,-0.008 -0.274628,-0.17476 0,-0.25874 -0.104133,-0.26037 -0.426711,-0.007 -0.274903,0.21622 -0.472073,0.2583 -0.472073,0.10066 z M 71.89428,18.438338 c 0,-0.0453 0.112346,-0.18801 0.249661,-0.31701 0.29096,-0.27334 0.329163,-0.15319 0.05557,0.17477 -0.194276,0.23288 -0.30523,0.28459 -0.30523,0.14224 z m 3.821073,-0.6694 c -0.416991,-0.29208 -0.373046,-1.31716 0.08399,-1.959 0.343714,-0.48271 0.187772,-0.51049 -0.619066,-0.1104 -0.725772,0.35996 -1.089766,0.63911 -1.85011,1.41881 -0.629547,0.64559 -0.941574,0.77203 -0.550764,0.22319 0.185992,-0.2612 0.620508,-0.66559 1.71137,-1.59269 0.385293,-0.32746 0.953644,-0.6334 1.511815,-0.81382 0.199852,-0.0647 0.523434,-0.2729 0.71907,-0.4629 0.457177,-0.444 0.652595,-0.44654 0.315116,-0.004 l -0.26038,0.34137 0.279354,0.13389 c 0.367505,0.17615 0.57921,0.62298 0.564005,1.19042 -0.01543,0.57573 -0.2082,0.95297 -0.726045,1.42082 -0.445057,0.40208 -0.814379,0.46926 -1.178348,0.21432 z m 1.135572,-0.61695 c 0.247012,-0.2934 0.367552,-1.08186 0.210495,-1.37688 -0.313111,-0.58813 -0.68968,-0.57874 -0.977338,0.0244 -0.296469,0.62159 -0.320874,1.38354 -0.05065,1.58128 0.245563,0.17971 0.543887,0.0963 0.817491,-0.22876 z m 1.061403,-3.59353 c 0.09285,-0.0928 0.196859,-0.14077 0.23113,-0.10653 0.09828,0.0983 -0.0526,0.27532 -0.234646,0.27532 -0.152441,0 -0.152168,-0.0133 0.0035,-0.16882 z"
         id="path1" /><text
         xml:space="preserve"
         style="font-style:normal;font-variant:normal;font-weight:600;font-stretch:normal;font-size:4.9389px;line-height:1.25;font-family:'Source Sans 3';-inkscape-font-specification:'Source Sans 3 Semi-Bold';stroke-width:0.264583"
         x="78.398331"
         y="36.944473"
         id="text1"><tspan
           sodipodi:role="line"
           id="tspan1"
           x="78.398331"
           y="36.944473"
           style="font-style:normal;font-variant:normal;font-weight:500;font-stretch:normal;font-family:'Source Sans 3';-inkscape-font-specification:'Source Sans 3 Medium';stroke-width:0.264583">S A C R E D   M U S I C</tspan></text></g></g></svg>
